<svg height="100" viewBox="0 0 100 100" width="100" xmlns="http://www.w3.org/2000/svg"><path d="m32.62 24h34.76a9.12 9.12 0 0 1 9.12 9.12v15.31c-1.8-.93-5.74-1.92-11.57-1.92a42.35 42.35 0 0 0 -6.67.5c-3.93.65-6 1.77-6 2.46v26c0 .43.59 1 1.71 1.56h-21.35a9.12 9.12 0 0 1 -9.12-9.12v-34.78a9.12 9.12 0 0 1 9.12-9.13z" fill="#19486f"/><path d="m32.62 21.81h34.76a9.12 9.12 0 0 1 9.12 9.12v15.3c-1.8-.93-5.74-1.92-11.57-1.92a42.35 42.35 0 0 0 -6.67.5c-3.93.65-6 1.77-6 2.46v26c0 .43.59 1 1.71 1.56h-21.35a9.12 9.12 0 0 1 -9.12-9.12v-34.78a9.12 9.12 0 0 1 9.12-9.12z" fill="#2e73b8"/><path d="m65.85 51.29a35.53 35.53 0 0 0 -5.6.42 16.49 16.49 0 0 1 -5-.44v2.5c0 .58 1.75 1.52 5 2.05a33.94 33.94 0 0 0 5.6.42c6.9 0 10.65-1.63 10.65-2.47v-2.5z" fill="#19486f"/><path d="m55 58.63v17.1c0 .87 3 2.47 10.12 2.47a32.25 32.25 0 0 0 8.79-1c1.42-.46 2.43-1 2.54-1.37v-17c-2.08 1.29-6.37 2-10.63 2h-.28-1.31-.18l-1.05-.18h-.54l-.84-.07-.45-.07-.9-.12a14.26 14.26 0 0 1 -5.27-1.76z" fill="#19486f"/><path d="m65.85 48.8a35.53 35.53 0 0 0 -5.6.42c-3.3.55-5 1.49-5 2.06s1.75 1.52 5 2.05a33.94 33.94 0 0 0 5.6.42c6.9 0 10.65-1.63 10.65-2.47s-3.75-2.48-10.65-2.48z" fill="#2e73b8"/><path d="m55 56.13v17.1c0 .87 3 2.47 10.12 2.47a32.25 32.25 0 0 0 8.79-1c1.42-.46 2.43-1 2.54-1.37v-17c-2.08 1.29-6.37 2-10.63 2h-.28-1.31-.18l-1.05-.18h-.54l-.84-.15h-.45l-.9-.12a14.26 14.26 0 0 1 -5.27-1.75z" fill="#2e73b8"/><path d="m32.62 74.81h21.33v2.19h-21.33a9.12 9.12 0 0 1 -9.12-9.12v-2.2a9.12 9.12 0 0 0 9.12 9.13z" fill="#19486f"/><g fill="#fff"><path d="m29.78 28.08h3.1l1.48 7.31 1.49-7.31h3.15v10.35h-1.95v-8.26l-1.84 8.26h-1.65l-1.84-8.26v8.26h-1.94z"/><path d="m41.77 35.2v.3c0 1 .28 1.59 1.38 1.59a1.19 1.19 0 0 0 1.25-1.28c0-.94-.48-1.29-1.86-1.77-1.86-.64-2.71-1.41-2.71-3.13 0-2 1.23-3 3.2-3s3.2.8 3.2 2.78v.31h-2c0-1-.33-1.54-1.13-1.54a1.07 1.07 0 0 0 -1.19 1.2c0 .64.19 1 1.07 1.41l1.61.7c1.57.68 2 1.48 2 2.74 0 2.19-1.33 3.17-3.59 3.17s-3.29-1.1-3.29-3v-.48z"/><path d="m52 35.2v.3c0 1 .28 1.59 1.38 1.59a1.19 1.19 0 0 0 1.25-1.28c0-.94-.48-1.29-1.86-1.77-1.86-.64-2.71-1.41-2.71-3.13 0-2 1.23-3 3.2-3s3.2.8 3.2 2.78v.31h-2c0-1-.33-1.54-1.13-1.54a1.07 1.07 0 0 0 -1.19 1.2c0 .64.19 1 1.07 1.41l1.61.7c1.57.68 2 1.48 2 2.74 0 2.19-1.33 3.17-3.59 3.17s-3.29-1.1-3.29-3v-.48z"/><path d="m63.5 39.71-1.23-1.28a2.72 2.72 0 0 1 -.64.16 5.58 5.58 0 0 1 -.74 0c-3.13 0-3.52-2.23-3.52-5.38s.39-5.38 3.52-5.38 3.52 2.23 3.52 5.38a7.57 7.57 0 0 1 -.8 4.2l1.12 1.13zm-2.61-2.61c1.23 0 1.43-1.06 1.43-3.84s-.2-3.84-1.43-3.84-1.44 1.07-1.44 3.84.21 3.84 1.44 3.84z"/><path d="m65.32 38.43v-10.35h2.09v8.64h3.7v1.71z"/><path d="m60 60h3.27l2.32 9.73 2.36-9.73h3.2v13.17h-2v-10.92l-2.67 10.92h-1.77l-2.64-10.92v10.92h-2.07z"/></g><text font-family="HelveticaNeue-CondensedBold, Helvetica Neue" font-size="12" font-weight="700" transform="translate(0 -3.59)">MS SQL instance</text></svg>