<svg height="512" width="383" xmlns="http://www.w3.org/2000/svg"><path d="m204.9594269 110.031456c-28.594101-6.6597366-42.8023987 11.9661407-51.4698181 31.2844315-7.7392731-1.8757782-4.6596222-12.4004669-2.7048035-17.7634964 5.1181641-14.074852 25.7441864-32.8108978 42.5971832-30.2709808 7.2523804 1.0921173 17.0666962 7.7235184 11.5774384 16.7500916m139.3205108 32.5621718c.4500732.0188751.9064026.0346375 1.3565063.0534973 6.4614258 13.4233551 12.0542603 27.6429901 20.2058105 39.4926758-5.4606018 12.7183533-41.3495789 23.9732056-40.7956543 1.1361694 7.761322-3.3928375 21.1594849-.6924133 28.0395203-5.0262909-3.978241-10.9180603-9.7189331-20.2121277-8.8062439-35.6560516m-124.6813048.3493805c6.1309967 11.2391052 8.1264038 23.0478668 16.8413391 31.5425262 3.9247284 3.8239899 11.5569763 8.4851837 7.7739105 19.1199951-.8843994 2.5084076-7.3458557 8.1012421-11.0754395 9.1996613-13.6247864 4.0222778-45.3724823.8309174-34.6212158-16.1552277 11.267746.5256348 26.4130096 7.3175354 34.8352356-.8623657-6.4677581-10.3389892-17.998291-30.7934417-13.7538299-42.8445892m119.5669555 114.2290649c-20.5142822 13.1778564-43.3890686 27.5076599-77.0025024 24.184082-7.1822052-6.2442932-9.9203949-20.1397705-2.942749-29.3173676 3.632019 6.244278 1.3501892 17.7288666 11.4719849 19.4568024 19.0727844 3.2637939 41.2709045-11.6671448 54.9901123-16.885437 8.5072632-14.3423767-.7333069-19.6172943-8.3970642-28.8483887-15.6894226-18.9123077-36.7355652-42.3535919-35.9707947-70.6669464 6.3418579-4.5982361 6.8895264 7.0185242 7.7990723 9.1335144 8.1924744 19.1735077 28.8106384 43.6943359 43.8580017 60.1045074 3.6949463 4.041153 9.778717 7.9187012 10.4554443 10.5907745 1.9513244 7.7707369-5.0766602 17.0805513-4.2615052 22.248459m13.0614014 13.4076538c-9.5489807 18.1757812-23.0573425 38.1927795-51.0780029 38.7750854-.5696716-5.8697815-1.0071411-14.8018799.0314941-18.3363342 21.4207154-2.0583801 34.6457825-12.9606933 51.0465088-20.4387512m-134.2441864 11.7835999c17.8717804 9.3979187 50.7173004 10.4082336 75.0083466 9.6968994 1.303009 5.3220825 1.2715149 11.8968811 1.3218689 18.3866577-31.2246094 1.5579224-68.1427765-6.1687927-76.3302307-28.0836182m-3.3968812 17.5243531c12.3585968 31.02948 54.8349304 27.4572754 90.6546631 26.6011963-1.5768127 4.0285645-4.994812 8.7873535-9.2436829 10.5089417-11.478302 4.6705933-43.1372681 8.2145081-59.0721741-.2486267-10.1060638-5.3724976-16.5990143-17.5117188-22.1361084-24.6278381-2.6739655-3.4368591-15.988739-12.2147522-.2026825-12.2336426m95.4826509-273.3957501c16.8445129 12.7404118 43.7698669 39.6406021 53.4006653 59.116272 25.4367065 51.4178925 23.6300964 137.3493652 5.8382568 199.8961792-14.4060974 50.1992798-44.4345093 86.1394653-55.00354 91.0795593-78.1503754 36.5283813-102.4931335 17.303894-120.4819336 8.0450745-19.7992554-10.1906738-62.0023346-50.8293457-61.7082825-77.0679932 23.2445831 32.2475586 42.4468689 60.414093 84.7159882 74.5948181 31.9814148 10.7293396 84.4939728-7.5820007 101.1707916-28.5887756 48.5119629-61.1074829 55.7229919-120.0490265 53.26474-171.2192841-1.069458-22.2617188-1.0967407-44.4395142-8.5638123-59.4152603-7.8069153-15.6572037-34.2051392-29.666687-49.6585388-15.5037155-2.8640747-15.2267609 12.8505554-24.6435776 31.3096008-19.1640854-13.1621399-16.9861374-26.9757385-37.396553-45.6835022-47.9527969-32.5708313-18.3787709-87.7043152-32.2014781-122.3513794-14.9277631-27.9575348 13.9385757-65.747345 37.0031357-78.6315536 66.2292023 12.0360031 28.2031937-3.5653 54.0458984-4.5611115 82.6802979-.5287476 15.2362213 7.1737061 28.5368195 7.7638321 45.1232452-4.1185989 6.7950745-16.7019272 7.6322784-25.4124603 7.1664429-2.932045-14.6728516-8.0650253-31.164856-23.1744003-32.8203125-21.3797913-2.3384399-37.01194 15.3558044-37.9832077 33.8463593-1.1494036 21.744873 16.701601 57.7849121 42.0032806 55.2828064 9.774025-.9662476 12.1751251-10.763855 22.8244095-10.663147 5.7718887 11.5160522-8.9034653 15.1323547-10.4132462 23.3688965-.3934174 2.127594 1.2170715 10.4428101 2.1537094 14.3424072 4.5957336 18.9878235 14.8405991 43.5621643 24.9243164 58.0178528l6.8478165 33.550293.0001144.000061c-2.852417-2.0331726-22.148056-27.1394043-24.7914734-26.0976257-4.6310501-3.8855896-24.3304291-63.6074524-24.9942436-73.6348877-42.099308-5.0522461-69.1901398-73.0675049-41.8348999-112.3249207-8.7682056-49.6896667 5.1603556-85.4320984 26.08601-94.7534485 9.2981377-37.0408707 42.5766296-49.3576317 73.9313354-67.7651138 77.1534348-42.0140934 161.2602769-29.1193302 199.0127183-.4406376zm-64.8039399 425.5598735c-.6955719 7.7266846 1.1015472 10.2539978 2.6563416 19.1105652 25.398941 7.9407044 20.9643707-34.8597717-2.6563416-19.1105652zm-28.1654357-9.2468566c-10.9441986-5.9799194-27.385849-12.4884033-41.5211029-15.1890259-17.522583-3.3477478-15.8773346 23.9006653-15.1367493 40.1599121.5863037 12.872467 7.2714844 26.48703 10.1856842 35.036377 1.361557 3.9943848 1.6721802 8.22995 5.0860748 9.0227356 6.0340424 1.4065552 25.9382172-6.553009 31.609848-9.6459045 11.9947662-6.5410767 21.3017426-16.9266357 31.4896393-23.901123.1321869-3.3928223.2612305-6.7824707.3965607-10.1753235-6.1246948-3.052887-13.2030334-5.2182617-22.1949463-5.6116638 6.0995331-3.068634 15.0725555-3.0245667 20.630722-6.6754761.0534973-1.3596497.1101685-2.716156.1573792-4.0632019-10.1469727-.7805482-14.0150604-5.30011-20.7031097-8.957306zm110.0620574 16.4857177c-.4921265-10.2444763-3.1819458-31.3127441-9.5143433-35.0014343-13.2911987-7.7581482-36.9181519 15.6642456-46.9266663 19.2364807 1.0889893 3.1347351 2.8861084 5.617981 3.0245667 9.6245117 5.9201355-1.4572144 13.1275024-.4595337 18.2576599 2.0614929-5.9327087.664093-12.5106201.6200256-16.4353333 3.4463196-1.438324 4.1576233.3525085 9.8228149-.6043091 15.5950317 14.0811462 3.9719238 30.164032 6.0869141 47.965271 6.609375 3.4620668-4.5006713 4.6413881-13.073944 4.2331544-21.5717773zm-262.5225143-207.8858947c-6.429985-3.6697845-7.9605331-19.8344574-15.5093918-20.2939606-10.7880936-.6546173-8.8210144 20.9706268-8.7779007 33.6165924-7.425808-6.7415466-8.7316284-27.4981842-3.2763672-38.1581573-6.2172279-3.0529175-8.993494 3.3676605-12.4420185 5.6305695 4.4320641-32.1971436 47.0994339-14.9340515 40.0056763 19.2050018"/></svg>